<svg id="visual" viewBox="0 0 960 540" width="960" height="540" xmlns="http://www.w3.org/2000/svg" xmlns:xlink="http://www.w3.org/1999/xlink" version="1.1"><rect width="960" height="540" fill="#931F1F"></rect><g><g transform="translate(749 345)"><path d="M82 -26.9C94.4 11.5 84.4 56.9 53.4 81.2C22.4 105.6 -29.6 108.9 -59.8 86C-90 63.2 -98.4 14.2 -84.8 -25.8C-71.2 -65.8 -35.6 -96.8 -0.4 -96.7C34.8 -96.5 69.7 -65.2 82 -26.9Z" stroke="#F7760E" fill="none" stroke-width="20"></path></g><g transform="translate(917 41)"><path d="M85 -29.2C94.7 2.5 76.7 41.7 46.6 63.4C16.4 85.2 -25.9 89.6 -51.9 70.9C-77.9 52.1 -87.6 10.3 -76.2 -23.7C-64.8 -57.7 -32.4 -83.7 2.6 -84.5C37.6 -85.4 75.2 -61 85 -29.2Z" stroke="#F7760E" fill="none" stroke-width="20"></path></g><g transform="translate(195 115)"><path d="M99.5 -35.2C111.7 5.1 92.3 52.8 57 78.4C21.7 104 -29.5 107.6 -59.1 85.2C-88.7 62.8 -96.7 14.4 -83.2 -27.7C-69.8 -69.8 -34.9 -105.6 4.4 -107.1C43.7 -108.5 87.4 -75.5 99.5 -35.2Z" stroke="#F7760E" fill="none" stroke-width="20"></path></g><g transform="translate(412 483)"><path d="M62.1 -22C68.7 0.1 54.1 27.3 32.2 42.8C10.3 58.4 -19 62.4 -37.8 49.3C-56.6 36.3 -64.9 6.2 -56.9 -17.8C-48.9 -41.9 -24.4 -60 1.7 -60.5C27.7 -61.1 55.5 -44.1 62.1 -22Z" stroke="#F7760E" fill="none" stroke-width="20"></path></g><g transform="translate(614 29)"><path d="M74 -25.4C83.3 4.7 69.6 40.8 42.4 61.3C15.1 81.8 -25.7 86.7 -49.8 69C-74 51.4 -81.5 11.2 -70.4 -21.3C-59.3 -53.8 -29.7 -78.6 1.3 -79C32.3 -79.5 64.7 -55.5 74 -25.4Z" stroke="#F7760E" fill="none" stroke-width="20"></path></g><g transform="translate(52 500)"><path d="M80 -24C90.1 5 75.3 44.2 47.7 63.7C20.1 83.3 -20.2 83.3 -45.2 64.6C-70.1 45.9 -79.7 8.4 -69.6 -20.6C-59.5 -49.6 -29.8 -70.3 2.6 -71.1C34.9 -72 69.9 -53 80 -24Z" stroke="#F7760E" fill="none" stroke-width="20"></path></g></g></svg>